<svg width="166" height="161" viewBox="0 0 166 161" fill="none" xmlns="http://www.w3.org/2000/svg">
<path opacity="0.44" d="M129.078 40.25H113.81V161H129.078V40.25Z" fill="#233C67"/>
<path d="M165.174 111.956H60.939V34.7464H138.706C153.324 34.7464 165.172 46.5965 165.172 61.2126V111.956H165.174Z" fill="#5E9CEA"/>
<path d="M86.3087 111.956H35.5698V58.2479C35.5698 45.2682 46.0916 34.7464 59.0713 34.7464H62.8073C75.7869 34.7464 86.3087 45.2682 86.3087 58.2479V111.956Z" fill="#73B0F4"/>
<path d="M81.8976 111.956H39.9829V61.2189C39.9829 49.6441 49.3665 40.2627 60.9391 40.2627C72.514 40.2627 81.8954 49.6463 81.8954 61.2189V111.956H81.8976Z" fill="#3473B7"/>
<path d="M65.2147 40.6976C63.834 40.4114 62.4051 40.2607 60.9413 40.2607C49.3665 40.2607 39.9851 49.6442 39.9851 61.2169V111.956H48.5341V61.2191C48.5319 51.108 55.6892 42.6727 65.2147 40.6976Z" fill="#2B69A0"/>
<path d="M165.174 106.442H86.3086V111.956H165.174V106.442Z" fill="#73B0F4"/>
<path d="M165.174 62.0451H86.3086V106.442H165.174V62.0451Z" fill="#3473B7"/>
<path d="M165.174 62.0451H86.3086V64.2517H165.174V62.0451Z" fill="#2467A3"/>
<path opacity="0.1" d="M109.75 34.7464H107.543V73.0759H109.75V34.7464Z" fill="black"/>
<path d="M142.287 24.2683H104.786V4.41319H142.287L132.637 14.616L142.287 24.2683Z" fill="#E8553E"/>
<path d="M108.371 73.3512H101.2V3.58519C101.2 1.6058 102.806 0 104.786 0C106.765 0 108.371 1.6058 108.371 3.58519V73.3512Z" fill="#27455B"/>
<path d="M102.854 4.6885C102.854 2.70911 104.46 1.1033 106.439 1.1033C106.815 1.1033 107.178 1.16229 107.519 1.26935C106.861 0.493757 105.88 0 104.786 0C102.806 0 101.2 1.6058 101.2 3.58519V73.3512H102.854V4.6885Z" fill="#27455B"/>
<path d="M110.025 4.41319H108.371V24.2683H110.025V4.41319Z" fill="#D84435"/>
<path d="M104.648 80.245C107.617 80.245 110.024 77.8377 110.024 74.8683C110.024 71.8988 107.617 69.4916 104.648 69.4916C101.678 69.4916 99.271 71.8988 99.271 74.8683C99.271 77.8377 101.678 80.245 104.648 80.245Z" fill="#AAAAAA"/>
<path d="M105.474 80.2438C108.443 80.2438 110.85 77.8366 110.85 74.8671C110.85 71.8977 108.443 69.4904 105.474 69.4904C102.504 69.4904 100.097 71.8977 100.097 74.8671C100.097 77.8366 102.504 80.2438 105.474 80.2438Z" fill="#C9C9C9"/>
<path d="M105.612 77.4871C107.134 77.4871 108.369 76.2527 108.369 74.7299C108.369 73.2072 107.134 71.9728 105.612 71.9728C104.089 71.9728 102.854 73.2072 102.854 74.7299C102.854 76.2527 104.089 77.4871 105.612 77.4871Z" fill="#AAAAAA"/>
<path d="M86.8618 118.851H4.13575C1.85049 118.851 0 116.999 0 114.716C0 112.43 1.85268 110.58 4.13575 110.58H86.8618C89.1471 110.58 90.9975 112.433 90.9975 114.716C90.9975 116.999 89.1449 118.851 86.8618 118.851Z" fill="#70B2ED"/>
<path d="M65.2857 65.1367L58.8909 97.0015C58.7686 97.6154 58.1721 98.013 57.5582 97.8885L8.48845 88.0396C7.87453 87.9172 7.4769 87.3208 7.60144 86.7069L13.9962 54.8421C14.1186 54.2282 14.715 53.8306 15.3289 53.9551L64.3987 63.804C65.0104 63.9263 65.4081 64.5228 65.2857 65.1367Z" fill="#FFAC27"/>
<path opacity="0.5" d="M59.3793 94.5523L58.8877 96.9992C58.7654 97.6131 58.169 98.0107 57.555 97.8862L8.48528 88.0373C7.87136 87.915 7.47373 87.3185 7.59826 86.7046L8.08983 84.2577C13.4665 77.8257 24.4974 74.7059 36.2143 77.0567C47.9312 79.4097 56.8996 86.5451 59.3793 94.5523Z" fill="#FDCD56"/>
<path d="M63.6837 63.66L38.229 81.5182C36.4091 82.7308 33.9294 82.2326 32.7169 80.4127L15.9641 54.082L63.6837 63.66Z" fill="#ED9718"/>
<path d="M63.7645 63.6751L38.4234 80.5437C36.6035 81.7562 34.1238 81.2581 32.9113 79.4382L16.0427 54.0993L63.7645 63.6751Z" fill="#FDCD56"/>
</svg>
